M48
; DRILL file {KiCad 7.0.1} date Tue Jul  9 09:16:00 2024
; FORMAT={-:-/ absolute / inch / decimal}
; #@! TF.CreationDate,2024-07-09T09:16:00-05:00
; #@! TF.GenerationSoftware,Kicad,Pcbnew,7.0.1
; #@! TF.FileFunction,Plated,1,4,PTH
FMAT,2
INCH
; #@! TA.AperFunction,Plated,PTH,ViaDrill
T1C0.0118
; #@! TA.AperFunction,Plated,PTH,ComponentDrill
T2C0.0236
; #@! TA.AperFunction,Plated,PTH,ComponentDrill
T3C0.0335
; #@! TA.AperFunction,Plated,PTH,ComponentDrill
T4C0.0394
%
G90
G05
T1
X4.944Y-4.758
X5.018Y-4.806
X5.075Y-4.445
X5.082Y-4.862
X5.136Y-4.938
X5.142Y-4.534
X5.17Y-4.13
X5.188Y-4.788
X5.192Y-2.836
X5.202Y-2.562
X5.222Y-4.186
X5.226Y-2.884
X5.238Y-3.654
X5.252Y-2.82
X5.258Y-2.56
X5.268Y-4.234
X5.27Y-4.538
X5.29Y-4.32
X5.306Y-2.56
X5.31Y-4.138
X5.325Y-3.31
X5.328Y-4.542
X5.348Y-3.142
X5.35Y-3.214
X5.352Y-3.074
X5.364Y-2.668
X5.384Y-3.02
X5.396Y-4.786
X5.402Y-4.926
X5.406Y-3.29
X5.416Y-2.804
X5.4324Y-4.446
X5.438Y-4.1
X5.44Y-2.65
X5.442Y-4.184
X5.448Y-2.89
X5.468Y-2.614
X5.468Y-3.342
X5.492Y-5.556
X5.52Y-4.854
X5.524Y-2.836
X5.524Y-2.894
X5.526Y-5.66
X5.536Y-3.342
X5.54Y-5.76
X5.548Y-4.184
X5.594Y-3.34
X5.604Y-2.832
X5.606Y-4.104
X5.622Y-2.608
X5.622Y-2.894
X5.622Y-5.198
X5.626Y-4.38
X5.628Y-4.442
X5.652Y-3.336
X5.658Y-5.198
X5.666Y-3.608
X5.666Y-5.282
X5.668Y-2.836
X5.69Y-4.382
X5.694Y-4.438
X5.6994Y-2.6352
X5.706Y-2.894
X5.708Y-3.336
X5.71Y-3.084
X5.71Y-3.15
X5.71Y-4.782
X5.712Y-3.03
X5.712Y-3.218
X5.714Y-3.28
X5.718Y-2.958
X5.718Y-3.518
X5.746Y-3.86
X5.746Y-3.932
X5.75Y-3.782
X5.75Y-4.634
X5.756Y-4.494
X5.756Y-4.56
X5.762Y-4.382
X5.772Y-3.358
X5.776Y-4.438
X5.8Y-2.805
X5.802Y-4.776
X5.804Y-4.618
X5.808Y-4.55
X5.81Y-3.53
X5.816Y-3.256
X5.816Y-3.85
X5.816Y-3.926
X5.816Y-4.492
X5.824Y-3.788
X5.825Y-3.305
X5.842Y-4.82
X5.848Y-4.442
X5.85Y-4.384
X5.85Y-4.734
X5.854Y-4.772
X5.888Y-3.924
X5.892Y-3.846
X5.892Y-4.706
X5.894Y-4.82
X5.896Y-3.784
X5.904Y-4.772
X5.91Y-4.386
X5.9127Y-5.4768
X5.95Y-5.465
X5.99Y-3.58
X6.002Y-5.352
X6.02Y-4.328
X6.034Y-2.904
X6.04Y-3.26
X6.064Y-5.748
X6.102Y-3.784
X6.102Y-5.51
X6.11Y-3.23
X6.11Y-3.28
X6.13Y-4.33
X6.1505Y-2.7555
X6.162Y-4.664
X6.176Y-4.618
X6.1813Y-3.374
X6.222Y-4.518
X6.23Y-3.406
X6.235Y-2.92
X6.235Y-3.475
X6.254Y-5.5
X6.284Y-5.412
X6.312Y-2.616
X6.336Y-4.504
X6.338Y-4.472
X6.342Y-2.55
X6.378Y-2.614
X6.408Y-2.546
X6.484Y-2.546
X6.5Y-3.092
X6.5Y-3.266
X6.5Y-3.354
X6.5Y-3.542
X6.5Y-3.654
X6.502Y-3.178
X6.502Y-3.77
X6.504Y-3.87
X6.506Y-3.44
X6.506Y-4.152
X6.534Y-4.934
X6.544Y-4.426
X6.546Y-4.12
X6.555Y-4.685
X6.582Y-4.864
X6.615Y-4.59
X6.648Y-4.796
X6.716Y-4.726
T3
X6.3737Y-2.6938
X6.3737Y-2.8906
T4
X5.476Y-2.556
X5.4963Y-4.24
X5.576Y-2.556
X5.5963Y-4.24
X5.676Y-2.556
X5.6963Y-4.24
X5.776Y-2.556
X5.7963Y-4.24
X5.8Y-5.305
X5.876Y-2.556
X5.8963Y-4.24
X5.9Y-5.305
X5.976Y-2.556
X5.9963Y-4.24
X6.076Y-2.556
X6.0963Y-4.24
X6.176Y-2.556
X6.1963Y-4.24
T2
G00X6.4662Y-2.6544
M15
G01X6.4938Y-2.6544
M16
G05
G00X6.4662Y-2.93
M15
G01X6.4938Y-2.93
M16
G05
T0
M30
